<svg xmlns="http://www.w3.org/2000/svg" x="0px" y="0px" width="100" height="100" viewBox="0 0 64 64">
<path d="M 12 0.5 C 8.4 0.5 5.5 3.4 5.5 7 L 5.5 45.5 C 5.5 46.3 6.2 47 7 47 C 7.8 47 8.5 46.3 8.5 45.5 L 8.5 7 C 8.5 5 10 3.5 12 3.5 L 51.5 3.5 C 50.8 4.5 50.5 5.7 50.5 7 L 50.5 57 C 50.5 59 49 60.5 47 60.5 C 45 60.5 43.5 59 43.5 57 L 43.5 52 C 43.5 51.2 42.8 50.5 42 50.5 L 2 50.5 C 1.2 50.5 0.5 51.2 0.5 52 L 0.5 57 C 0.5 60.6 3.4 63.5 7 63.5 L 47 63.5 C 50.6 63.5 53.5 60.6 53.5 57 L 53.5 7 C 53.5 5 55 3.5 57 3.5 C 59 3.5 60.5 5 60.5 7 L 60.5 10.5 L 57 10.5 C 56.2 10.5 55.5 11.2 55.5 12 C 55.5 12.8 56.2 13.5 57 13.5 L 62 13.5 C 62.8 13.5 63.5 12.8 63.5 12 L 63.5 7 C 63.5 3.4 60.6 0.5 57 0.5 L 12 0.5 z M 23.5 10.5 C 22.6 10.5 22 11.1 22 12 C 22 12.9 22.6 13.5 23.5 13.5 L 35.5 13.5 C 36.3 13.5 37 12.9 37 12 C 37 11.1 36.3 10.5 35.5 10.5 L 23.5 10.5 z M 17 25.5 C 16.1 25.5 15.5 26.1 15.5 27 C 15.5 27.9 16.1 28.5 17 28.5 L 42 28.5 C 42.8 28.5 43.5 27.9 43.5 27 C 43.5 26.1 42.8 25.5 42 25.5 L 17 25.5 z M 17.099609 33 C 16.199609 33 15.599609 33.7 15.599609 34.5 C 15.599609 35.3 16.199609 36 17.099609 36 L 34.599609 36 C 35.399609 36 36.099609 35.3 36.099609 34.5 C 36.099609 33.7 35.399609 33 34.599609 33 L 17.099609 33 z M 42 33 A 1.5 1.5 0 0 0 42 36 A 1.5 1.5 0 0 0 42 33 z M 3.5 53.5 L 40.5 53.5 L 40.5 57 C 40.5 58.3 40.9 59.5 41.5 60.5 L 7 60.5 C 5 60.5 3.5 59 3.5 57 L 3.5 53.5 z"></path>
</svg>